<svg xmlns="http://www.w3.org/2000/svg" width="26" height="23">
    <path fill-rule="evenodd" opacity=".2" fill="#062033" d="M21.819 6.322v3.904h-1.6V6.322h-4V4.726h4V.822h1.6v3.904h4v1.596h-4zM10.755 2.369c1.42.786 2.252 2.061 2.252 3.73 0 1.401-.866 2.505-1.982 3.363-1.089.835-1.296 1.186-1.296 1.897 0 .605 1.167 1.638 1.777 2.062 1.784 1.239 2.311 2.389 2.311 4.309 0 2.395-2.311 5.071-6.585 5.071-3.75 0-7.013-1.794-7.013-4.189 0-2.432 2.986-4.779 6.735-4.779.408 0 .783-.016 1.17-.016-.513-.49-.919-1.1-.919-1.842 0-.438.143-.88.343-1.256-.204.014-.412-.019-.626-.019-3.08 0-5.143-2.226-5.143-4.892 0-2.609 2.849-5.011 5.876-5.011h6.752l-1.511 1.572h-2.141zM7.668 14.454c-2.592-.027-4.914 1.552-4.914 3.449 0 1.935 1.872 3.35 4.464 3.35 3.643 0 4.913-1.316 4.913-3.251 0-.233-.03-.462-.083-.685-.285-1.094-1.293-1.638-2.701-2.598a5.7 5.7 0 0 0-1.679-.265zm2.912-8.326c-.301-2.242-2.029-4.043-3.769-4.094-1.739-.05-2.906 1.665-2.605 3.91.3 2.243 1.953 4.104 3.693 4.155 1.738.051 2.981-1.726 2.681-3.971z"/>
</svg>
