<svg xmlns="http://www.w3.org/2000/svg" width="34" height="23">
    <path fill-rule="evenodd" fill="#FFF" d="M33.99.669c.002-.014.006-.028.007-.041a.62.62 0 0 0-.006-.129c-.001-.011.001-.022-.001-.033A.603.603 0 0 0 33.934.3l-.016-.027-.002-.005-.003-.003-.011-.019a.582.582 0 0 0-.125-.132c-.011-.008-.023-.013-.035-.02a.573.573 0 0 0-.133-.067c-.021-.007-.042-.01-.064-.014a.523.523 0 0 0-.126-.012c-.022.001-.044.002-.066.005-.015.003-.029 0-.044.004L.443 6.909a.577.577 0 0 0-.15 1.072l9.417 5.046 1.652 9.309v.021a.524.524 0 0 0 .01.204.532.532 0 0 0 .063.154c.005.009.005.02.012.029l.006.008c.008.011.018.02.026.03a.615.615 0 0 0 .086.09c.006.004.009.01.015.014.008.007.018.008.026.014.035.023.07.042.108.057.016.006.03.013.046.017.051.015.103-.874.157-.874h.001c.002 0 .005.899.007.899.01 0 .019-.899.029-.899.157 0 .298.828.403.718l6.273-4.247 6.568 4.336c.093.061.201-.807.309-.807.059 0 .12.89.178.87a.573.573 0 0 0 .353-.347L33.962.775a.431.431 0 0 0 .019-.061l.005-.025.004-.02zM27.432 4.34 13.847 14.486c-.022.016-.04.037-.059.056-.008.007-.015.013-.021.021a.412.412 0 0 0-.033.04c-.011.014-.019.029-.028.043a.63.63 0 0 0-.052.108c-.003.008-.007.013-.009.021l-.004.006-1.557 5.14-1.234-6.954L27.432 4.34zm-14.47 16.687 1.543-5.178 2.403 1.586.688.454-2.335 1.581-2.299 1.557zM29.459 1.993 10.223 12.001l-8.006-4.29 27.242-5.718zM25.221 21.55l-8.723-5.758-1.321-.872L32.251 2.168l-7.03 19.382z"/>
</svg>
