<svg xmlns="http://www.w3.org/2000/svg" width="26" height="22">
    <path fill-rule="evenodd" opacity=".2" fill="#062033" d="M17.631.6c2.035-.035 3.117.706 4.152 1.648.877-.075 2.018-.565 2.69-.907l.654-.357c-.384 1.037-.905 1.849-1.704 2.465-.178.137-.354.322-.577.409v.013c1.14-.012 2.08-.526 2.973-.805v.013c-.469.745-1.104 1.501-1.781 2.044-.274.216-.547.434-.82.651.014 1.207-.018 2.359-.244 3.372-1.312 5.896-4.787 9.898-10.288 11.613-1.976.615-5.169.868-7.432.306-1.122-.279-2.136-.593-3.088-1.009A12.354 12.354 0 0 1 .68 19.29l-.461-.282c.51.016 1.107.157 1.678.065.516-.084 1.023-.062 1.499-.167 1.188-.261 2.243-.605 3.152-1.137.441-.258 1.109-.561 1.422-.932-.59.01-1.125-.127-1.563-.281-1.699-.6-2.688-1.703-3.331-3.36.515.056 1.998.191 2.345-.102-.649-.036-1.272-.411-1.717-.69-1.367-.855-2.482-2.29-2.473-4.497l.538.256c.343.145.692.222 1.102.307.173.035.519.137.717.063h-.025c-.265-.307-.695-.513-.961-.843C1.725 6.601.903 4.923 1.423 2.925c.132-.506.341-.954.564-1.366l.025.012c.102.214.33.371.475.55.447.554 1 1.054 1.563 1.494 1.918 1.5 3.645 2.422 6.419 3.105.704.173 1.517.305 2.357.306-.236-.688-.16-1.8.026-2.466.468-1.672 1.483-2.879 2.973-3.525a6.329 6.329 0 0 1 1.166-.358l.64-.077z"/>
</svg>
