<svg xmlns="http://www.w3.org/2000/svg" width="26" height="26">
    <path fill-rule="evenodd" opacity=".2" fill="#062033" d="M25.559 10.423a12.756 12.756 0 0 0-3.489-6.475A12.817 12.817 0 0 0 15.596.459a12.846 12.846 0 0 0-7.56.746 12.817 12.817 0 0 0-7.558 9.218 12.883 12.883 0 0 0 0 5.154 12.715 12.715 0 0 0 1.927 4.581c.458.678.983 1.313 1.562 1.893a12.81 12.81 0 0 0 6.474 3.489c.843.174 1.71.26 2.578.26a12.772 12.772 0 0 0 9.051-3.749 12.75 12.75 0 0 0 3.749-9.053c0-.866-.087-1.735-.26-2.575zm-1.612 2.467c-.158-.034-3.858-.83-7.614-.358a33.391 33.391 0 0 0-.962-2.15c4.317-1.762 6.069-4.297 6.09-4.327a10.884 10.884 0 0 1 2.486 6.835zm-3.708-8.095c-.027.043-1.584 2.412-5.71 3.959a55.647 55.647 0 0 0-4.086-6.378 10.88 10.88 0 0 1 2.576-.309c2.768 0 5.294 1.032 7.22 2.728zm-9.838-2.41-.002.002-.033.007.035-.009zm-2.046.727a66.042 66.042 0 0 1 4.059 6.299c-5.249 1.394-9.804 1.34-10.093 1.335a10.947 10.947 0 0 1 6.034-7.634zm-6.268 9.886c0-.116.005-.231.009-.344.193.003 5.595.125 11.223-1.558.313.613.613 1.236.887 1.857-.145.041-.288.085-.431.131-5.899 1.907-8.892 7.215-8.892 7.215s.004.003.005.006a10.896 10.896 0 0 1-2.801-7.307zm10.932 10.933c-2.646 0-5.072-.94-6.964-2.505.144.116.245.191.245.191s2.096-4.57 8.579-6.829a1 1 0 0 1 .072-.023c1.539 3.997 2.174 7.344 2.336 8.301a10.894 10.894 0 0 1-4.268.865zm6.108-1.864c-.111-.661-.693-3.869-2.128-7.809 3.53-.565 6.587.403 6.813.477a10.937 10.937 0 0 1-4.685 7.332z"/>
</svg>
