<svg xmlns="http://www.w3.org/2000/svg" width="26" height="17">
    <path fill-rule="evenodd" opacity=".2" fill="#062033" d="M17.03 2.196h6.377v1.629H17.03V2.196zm8.796 9.648h-8.303c.089 2.014 1.068 2.756 2.826 2.756 1.27 0 2.295-.405 2.495-1.122h2.532c-.889 2.73-2.532 3.516-5.138 3.516-3.628 0-5.876-2.506-5.876-6.085 0-3.469 2.382-6.109 5.876-6.109 3.918 0 5.81 3.487 5.588 7.044zm-8.303-2.365h5.143c-.29-1.611-.982-2.284-2.517-2.284-2.003 0-2.582 1.389-2.626 2.284zm-3.991 2.569c0 3.245-2.739 4.634-5.611 4.634H.219V.605h7.482c3.026 0 5.074 1.084 5.074 4.06 0 1.568-.779 2.663-2.161 3.335 1.939.56 2.918 2.058 2.918 4.048zM6.687 3.309H3.415v3.736h3.539c1.224 0 2.137-.56 2.137-1.9 0-1.522-1.158-1.836-2.404-1.836zm.533 6.129H3.415v4.386h3.739c1.38 0 2.581-.446 2.581-2.103 0-1.633-1.023-2.283-2.515-2.283z"/>
</svg>
