<svg xmlns="http://www.w3.org/2000/svg" width="16" height="15">
    <defs>
        <filter id="kahrd0b3xa">
            <feFlood flood-color="#FFF" flood-opacity="1" result="floodOut"/>
            <feComposite operator="atop" in="floodOut" in2="SourceGraphic" result="compOut"/>
            <feBlend in="compOut" in2="SourceGraphic"/>
        </filter>
    </defs>
    <g filter="url(#kahrd0b3xa)">
        <path fill-rule="evenodd" fill="#3C4042" d="M7.963 14.998c-4.345 0-7.869-3.357-7.869-7.499 0-4.142 3.524-7.501 7.869-7.501 4.346 0 7.869 3.359 7.869 7.501s-3.523 7.499-7.869 7.499zm6.228-6.659a11.537 11.537 0 0 0-3.885-.234c.868 2.143 1.224 3.826 1.306 4.267 1.37-.934 2.332-3.272 2.579-4.033zm-3.705 4.651c-.317-1.653-.87-3.213-1.498-4.641-1.766.468-3.596 1.556-4.981 3.781a6.42 6.42 0 0 0 3.956 1.369c.899 0 1.75-.186 2.523-.509zM1.668 7.499c0 1.445.559 2.754 1.452 3.789.701-1.1 2.384-3.165 5.393-3.978-.201-.411-.405-.82-.611-1.198-2.858 1.052-5.011 1.134-6.207 1.043-.007.115-.027.227-.027.344zm.196-1.427c1.597.014 3.701-.249 5.517-.868a31.638 31.638 0 0 0-2.094-3.117c-1.693.762-2.965 2.219-3.423 3.985zm6.099-4.574c-.516 0-1.01.076-1.49.188a21.429 21.429 0 0 1 2.155 3.022c1.632-.735 2.7-1.509 3.196-1.917a6.43 6.43 0 0 0-3.861-1.293zm4.789 2.147A26.194 26.194 0 0 1 9.139 5.61c.265.493.496.972.711 1.443 1.266-.155 2.725-.082 4.396.325-.031-1.426-.594-2.717-1.494-3.733z"/>
    </g>
</svg>
