<svg xmlns="http://www.w3.org/2000/svg" width="54" height="54">
    <defs>
        <linearGradient id="7lbzpoe1ga" x1="0%" x2="100%" y1="0%" y2="0%">
            <stop offset="0%" stop-color="#F82E6F"/>
            <stop offset="100%" stop-color="#CF38EF"/>
        </linearGradient>
    </defs>
    <path fill-rule="evenodd" fill="#FFF" d="m53.151 31.487-3.282.505a5.409 5.409 0 0 0-4.158 3.201 5.41 5.41 0 0 0 .482 5.225l1.786 2.638a1 1 0 0 1-.121 1.268l-4.242 4.242a1 1 0 0 1-1.298.1l-1.884-1.381a5.404 5.404 0 0 0-5.297-.64 5.397 5.397 0 0 0-3.294 4.198l-.355 2.309c-.074.488-.494-.052-.988-.052h-6c-.479 0-.892.56-.982.089l-.602-3.128a5.41 5.41 0 0 0-3.354-4.035 5.402 5.402 0 0 0-5.202.677l-2.679 1.964a1 1 0 0 1-1.298-.1l-4.242-4.242a1 1 0 0 1-.121-1.268l1.786-2.638a5.413 5.413 0 0 0 .482-5.226 5.408 5.408 0 0 0-4.157-3.2l-3.283-.505A1 1 0 0 1 0 30.5v-6c0-.479.34-.892.81-.981l3.128-.602a5.413 5.413 0 0 0 4.036-3.353 5.411 5.411 0 0 0-.677-5.203l-1.964-2.679a1.002 1.002 0 0 1 .1-1.299l4.243-4.242a1.001 1.001 0 0 1 1.268-.121l3.406 2.308a5.42 5.42 0 0 0 5.131.521 5.423 5.423 0 0 0 3.26-3.997l.777-4.04A1 1 0 0 1 24.5 0h6a1 1 0 0 1 .988.847l.505 3.282a5.413 5.413 0 0 0 3.201 4.158 5.411 5.411 0 0 0 5.224-.482l2.638-1.786a1 1 0 0 1 1.268.121l4.242 4.242a1 1 0 0 1 .1 1.298l-1.964 2.679a5.407 5.407 0 0 0-.677 5.203 5.406 5.406 0 0 0 4.035 3.354l3.128.602c.472.09-.088.503-.088.982v6c0 .493.54.913.051.987zM51.1 25.326l-1.415-.444a7.399 7.399 0 0 1-5.52-4.587 7.4 7.4 0 0 1 .925-7.117l1.457-1.986-3.052-3.052-1.954 1.323a7.404 7.404 0 0 1-7.146.659 7.403 7.403 0 0 1-4.378-5.687L29.642 1.1h-4.316l-.621 4.128a7.42 7.42 0 0 1-4.458 5.468 7.412 7.412 0 0 1-7.018-.713l-2.723-1.845-3.052 3.052 1.457 1.988a7.402 7.402 0 0 1 .926 7.117 7.402 7.402 0 0 1-5.52 4.587l-3.217.445v4.315l3.334.375a7.402 7.402 0 0 1 5.687 4.377 7.401 7.401 0 0 1-.659 7.146l-1.324 1.954 3.052 3.052 1.987-1.457a7.404 7.404 0 0 1 7.115-.926 7.403 7.403 0 0 1 4.588 5.521l.446 1.416h4.316l.224-.56a7.383 7.383 0 0 1 4.505-5.741 7.39 7.39 0 0 1 7.246.874l1.192.874 3.052-3.052-1.323-1.954a7.402 7.402 0 0 1-.66-7.146 7.4 7.4 0 0 1 5.687-4.378l1.535-.375v-4.316zM27.5 37.1c-5.79 0-11.4-3.81-11.4-9.6 0-5.79 5.61-11.4 11.4-11.4s9.6 5.61 9.6 11.4-3.81 9.6-9.6 9.6zm0-19c-4.687 0-9.4 4.713-9.4 9.4s4.713 7.6 9.4 7.6 7.6-2.913 7.6-7.6c0-4.687-2.913-9.4-7.6-9.4zm0 14c-3.033 0-6.4-1.568-6.4-4.6 0-3.032 3.367-6.4 6.4-6.4 3.033 0 4.6 3.368 4.6 6.4 0 3.032-1.567 4.6-4.6 4.6zm0-9c-1.93 0-4.4 2.47-4.4 4.4 0 1.93 2.47 2.6 4.4 2.6 1.93 0 2.6-.67 2.6-2.6 0-1.93-.67-4.4-2.6-4.4z"/>
    <path fill="url(#7lbzpoe1ga)" d="m53.151 31.487-3.282.505a5.409 5.409 0 0 0-4.158 3.201 5.41 5.41 0 0 0 .482 5.225l1.786 2.638a1 1 0 0 1-.121 1.268l-4.242 4.242a1 1 0 0 1-1.298.1l-1.884-1.381a5.404 5.404 0 0 0-5.297-.64 5.397 5.397 0 0 0-3.294 4.198l-.355 2.309c-.074.488-.494-.052-.988-.052h-6c-.479 0-.892.56-.982.089l-.602-3.128a5.41 5.41 0 0 0-3.354-4.035 5.402 5.402 0 0 0-5.202.677l-2.679 1.964a1 1 0 0 1-1.298-.1l-4.242-4.242a1 1 0 0 1-.121-1.268l1.786-2.638a5.413 5.413 0 0 0 .482-5.226 5.408 5.408 0 0 0-4.157-3.2l-3.283-.505A1 1 0 0 1 0 30.5v-6c0-.479.34-.892.81-.981l3.128-.602a5.413 5.413 0 0 0 4.036-3.353 5.411 5.411 0 0 0-.677-5.203l-1.964-2.679a1.002 1.002 0 0 1 .1-1.299l4.243-4.242a1.001 1.001 0 0 1 1.268-.121l3.406 2.308a5.42 5.42 0 0 0 5.131.521 5.423 5.423 0 0 0 3.26-3.997l.777-4.04A1 1 0 0 1 24.5 0h6a1 1 0 0 1 .988.847l.505 3.282a5.413 5.413 0 0 0 3.201 4.158 5.411 5.411 0 0 0 5.224-.482l2.638-1.786a1 1 0 0 1 1.268.121l4.242 4.242a1 1 0 0 1 .1 1.298l-1.964 2.679a5.407 5.407 0 0 0-.677 5.203 5.406 5.406 0 0 0 4.035 3.354l3.128.602c.472.09-.088.503-.088.982v6c0 .493.54.913.051.987zM51.1 25.326l-1.415-.444a7.399 7.399 0 0 1-5.52-4.587 7.4 7.4 0 0 1 .925-7.117l1.457-1.986-3.052-3.052-1.954 1.323a7.404 7.404 0 0 1-7.146.659 7.403 7.403 0 0 1-4.378-5.687L29.642 1.1h-4.316l-.621 4.128a7.42 7.42 0 0 1-4.458 5.468 7.412 7.412 0 0 1-7.018-.713l-2.723-1.845-3.052 3.052 1.457 1.988a7.402 7.402 0 0 1 .926 7.117 7.402 7.402 0 0 1-5.52 4.587l-3.217.445v4.315l3.334.375a7.402 7.402 0 0 1 5.687 4.377 7.401 7.401 0 0 1-.659 7.146l-1.324 1.954 3.052 3.052 1.987-1.457a7.404 7.404 0 0 1 7.115-.926 7.403 7.403 0 0 1 4.588 5.521l.446 1.416h4.316l.224-.56a7.383 7.383 0 0 1 4.505-5.741 7.39 7.39 0 0 1 7.246.874l1.192.874 3.052-3.052-1.323-1.954a7.402 7.402 0 0 1-.66-7.146 7.4 7.4 0 0 1 5.687-4.378l1.535-.375v-4.316zM27.5 37.1c-5.79 0-11.4-3.81-11.4-9.6 0-5.79 5.61-11.4 11.4-11.4s9.6 5.61 9.6 11.4-3.81 9.6-9.6 9.6zm0-19c-4.687 0-9.4 4.713-9.4 9.4s4.713 7.6 9.4 7.6 7.6-2.913 7.6-7.6c0-4.687-2.913-9.4-7.6-9.4zm0 14c-3.033 0-6.4-1.568-6.4-4.6 0-3.032 3.367-6.4 6.4-6.4 3.033 0 4.6 3.368 4.6 6.4 0 3.032-1.567 4.6-4.6 4.6zm0-9c-1.93 0-4.4 2.47-4.4 4.4 0 1.93 2.47 2.6 4.4 2.6 1.93 0 2.6-.67 2.6-2.6 0-1.93-.67-4.4-2.6-4.4z"/>
</svg>
