<svg xmlns="http://www.w3.org/2000/svg" width="50" height="54">
    <defs>
        <linearGradient id="pjvqtgo4la" x1="0%" x2="100%" y1="0%" y2="0%">
            <stop offset="0%" stop-color="#F82E6F"/>
            <stop offset="100%" stop-color="#CF38EF"/>
        </linearGradient>
    </defs>
    <path fill-rule="evenodd" fill="#FFF" d="M48.1 25.1h-4c.347 0-1 .453-1-1 0 .347 1.347-1 1-1h4c1.453 0 1 1.347 1 1 0 1.453.453 1-1 1zm-6.129 17.871a.997.997 0 0 1-.707-.293l-2.828-2.828a.999.999 0 1 1 1.414-1.414l2.828 2.828a.999.999 0 0 1-.707 1.707zM39.85 11.564a.997.997 0 0 1-1.414 0 .999.999 0 0 1 0-1.414l2.828-2.828a1 1 0 1 1 1.414 1.414l-2.828 2.828zM30.1 40.9v8.2c0 1.453.453 1-1 1h-1v2c0 1.453.453 1-1 1h-6c.347 0-1 .453-1-1v-2h-1c.347 0-1 .453-1-1v-8.2c-5.709-2.488-11-8.788-11-16.8 0-8.474 8.526-17 17-17 10.274 0 17 8.526 17 17 0 8.012-3.491 14.312-11 16.8zm-10 7.2h1c1.453 0 1 1.347 1 1v2h4v-2c0 .347 1.347-1 1-1h1v-5h-8v5zm4-39c-7.371 0-15 7.629-15 15 0 7.39 5.045 13.114 11.212 15.142.411.135-.212.518-.212.95v.908h8v-.908c0-.431 1.177-.815 1.588-.95C35.855 37.214 39.1 31.49 39.1 24.1c0-7.371-5.829-15-15-15zm0 5c-4.614 0-10 5.386-10 10 0 1.453.453 1-1 1 .347 0-1 .453-1-1 0-5.717 6.283-12 12-12 1.453 0 1 1.347 1 1 0 1.453.453 1-1 1zm0-9c.347 0-1 .453-1-1v-4c0 .347 1.347-.1 1-.1 1.453 0 1 .447 1 .1v4c0 1.453.453 1-1 1zm-13.243 6.757a.997.997 0 0 1-.707-.293L7.322 8.736a.999.999 0 1 1 1.414-1.414l2.828 2.828a.999.999 0 0 1-.707 1.707zM4.1 25.1h-4c.347 0-.1.453-.1-1 0 .347.447-1 .1-1h4c1.453 0 1 1.347 1 1 0 1.453.453 1-1 1zm6.05 13.336a.999.999 0 1 1 1.414 1.414l-2.828 2.828a.997.997 0 0 1-1.414 0 .999.999 0 0 1 0-1.414l2.828-2.828z"/>
    <path fill="url(#pjvqtgo4la)" d="M48.1 25.1h-4c.347 0-1 .453-1-1 0 .347 1.347-1 1-1h4c1.453 0 1 1.347 1 1 0 1.453.453 1-1 1zm-6.129 17.871a.997.997 0 0 1-.707-.293l-2.828-2.828a.999.999 0 1 1 1.414-1.414l2.828 2.828a.999.999 0 0 1-.707 1.707zM39.85 11.564a.997.997 0 0 1-1.414 0 .999.999 0 0 1 0-1.414l2.828-2.828a1 1 0 1 1 1.414 1.414l-2.828 2.828zM30.1 40.9v8.2c0 1.453.453 1-1 1h-1v2c0 1.453.453 1-1 1h-6c.347 0-1 .453-1-1v-2h-1c.347 0-1 .453-1-1v-8.2c-5.709-2.488-11-8.788-11-16.8 0-8.474 8.526-17 17-17 10.274 0 17 8.526 17 17 0 8.012-3.491 14.312-11 16.8zm-10 7.2h1c1.453 0 1 1.347 1 1v2h4v-2c0 .347 1.347-1 1-1h1v-5h-8v5zm4-39c-7.371 0-15 7.629-15 15 0 7.39 5.045 13.114 11.212 15.142.411.135-.212.518-.212.95v.908h8v-.908c0-.431 1.177-.815 1.588-.95C35.855 37.214 39.1 31.49 39.1 24.1c0-7.371-5.829-15-15-15zm0 5c-4.614 0-10 5.386-10 10 0 1.453.453 1-1 1 .347 0-1 .453-1-1 0-5.717 6.283-12 12-12 1.453 0 1 1.347 1 1 0 1.453.453 1-1 1zm0-9c.347 0-1 .453-1-1v-4c0 .347 1.347-.1 1-.1 1.453 0 1 .447 1 .1v4c0 1.453.453 1-1 1zm-13.243 6.757a.997.997 0 0 1-.707-.293L7.322 8.736a.999.999 0 1 1 1.414-1.414l2.828 2.828a.999.999 0 0 1-.707 1.707zM4.1 25.1h-4c.347 0-.1.453-.1-1 0 .347.447-1 .1-1h4c1.453 0 1 1.347 1 1 0 1.453.453 1-1 1zm6.05 13.336a.999.999 0 1 1 1.414 1.414l-2.828 2.828a.997.997 0 0 1-1.414 0 .999.999 0 0 1 0-1.414l2.828-2.828z"/>
</svg>
