<svg xmlns="http://www.w3.org/2000/svg" width="48" height="48">
    <defs>
        <linearGradient id="wxwhv09v8a" x1="0%" x2="100%" y1="0%" y2="0%">
            <stop offset="0%" stop-color="#F82E6F"/>
            <stop offset="100%" stop-color="#CF38EF"/>
        </linearGradient>
    </defs>
    <path fill-rule="evenodd" fill="#FFF" d="M45.264 16.759a.797.797 0 0 1-1.131 0 .8.8 0 0 1 0-1.131c2.988-2.99 2.988-7.853 0-10.842a.8.8 0 0 1 1.131-1.131c3.611 3.613 3.611 9.492 0 13.104zm-3.367-1.599a.797.797 0 0 1-1.131 0 .8.8 0 0 1 0-1.131 5.216 5.216 0 0 0 1.534-3.711 5.216 5.216 0 0 0-1.534-3.711.8.8 0 0 1 1.131-1.131 6.8 6.8 0 0 1 2.002 4.842 6.802 6.802 0 0 1-2.002 4.842zM34.055 47.1H13.913c-1.942 0-3.523-.682-3.523-2.625V3.524A3.528 3.528 0 0 1 13.913 0h20.143a3.528 3.528 0 0 1 3.522 3.524v40.952c0 1.942-1.581 2.624-3.523 2.624zm1.924-43.576A1.926 1.926 0 0 0 34.055 1.6H13.913c-1.06 0-1.923.863-1.923 1.924V4.8h23.989V3.524zm0 2.876H11.99v30.4h23.989V6.4zm0 32H11.99v6.076c0 1.061.863 1.924 1.923 1.924h20.143c1.06 0 1.923-.863 1.923-1.924V38.4zm-11.995 7.2a3.202 3.202 0 0 1-3.198-3.2c0-1.765 1.434-3.2 3.198-3.2a3.203 3.203 0 0 1 3.199 3.2c0 1.765-1.435 3.2-3.199 3.2zm0-4.8c-.882 0-1.599.718-1.599 1.6 0 .882.717.7 1.599.7s1.6.182 1.6-.7c0-.882-.718-1.6-1.6-1.6zM20.786 2.4h3.198a.8.8 0 0 1 .8.8c0 .442-.358-.1-.8-.1h-3.198c-.442 0-.8.542-.8.1a.8.8 0 0 1 .8-.8zm5.597 0h.8c.442 0 .799.358.799.8 0 .442-.357-.1-.799-.1h-.8c-.442 0-.799.542-.799.1 0-.442.357-.8.799-.8zM7.202 14.939a.796.796 0 0 1-1.13 0 6.802 6.802 0 0 1-2.003-4.842c0-1.831.711-3.551 2.003-4.842a.8.8 0 0 1 1.13 1.131 5.21 5.21 0 0 0-1.533 3.711c0 1.403.544 2.721 1.533 3.711a.799.799 0 0 1 0 1.131zm-3.367.689a.799.799 0 1 1-1.131 1.131c-3.611-3.613-3.611-9.491 0-13.104a.799.799 0 1 1 1.131 1.131c-2.988 2.99-2.988 7.853 0 10.842z"/>
    <path fill="url(#wxwhv09v8a)" d="M45.264 16.759a.797.797 0 0 1-1.131 0 .8.8 0 0 1 0-1.131c2.988-2.99 2.988-7.853 0-10.842a.8.8 0 0 1 1.131-1.131c3.611 3.613 3.611 9.492 0 13.104zm-3.367-1.599a.797.797 0 0 1-1.131 0 .8.8 0 0 1 0-1.131 5.216 5.216 0 0 0 1.534-3.711 5.216 5.216 0 0 0-1.534-3.711.8.8 0 0 1 1.131-1.131 6.8 6.8 0 0 1 2.002 4.842 6.802 6.802 0 0 1-2.002 4.842zM34.055 47.1H13.913c-1.942 0-3.523-.682-3.523-2.625V3.524A3.528 3.528 0 0 1 13.913 0h20.143a3.528 3.528 0 0 1 3.522 3.524v40.952c0 1.942-1.581 2.624-3.523 2.624zm1.924-43.576A1.926 1.926 0 0 0 34.055 1.6H13.913c-1.06 0-1.923.863-1.923 1.924V4.8h23.989V3.524zm0 2.876H11.99v30.4h23.989V6.4zm0 32H11.99v6.076c0 1.061.863 1.924 1.923 1.924h20.143c1.06 0 1.923-.863 1.923-1.924V38.4zm-11.995 7.2a3.202 3.202 0 0 1-3.198-3.2c0-1.765 1.434-3.2 3.198-3.2a3.203 3.203 0 0 1 3.199 3.2c0 1.765-1.435 3.2-3.199 3.2zm0-4.8c-.882 0-1.599.718-1.599 1.6 0 .882.717.7 1.599.7s1.6.182 1.6-.7c0-.882-.718-1.6-1.6-1.6zM20.786 2.4h3.198a.8.8 0 0 1 .8.8c0 .442-.358-.1-.8-.1h-3.198c-.442 0-.8.542-.8.1a.8.8 0 0 1 .8-.8zm5.597 0h.8c.442 0 .799.358.799.8 0 .442-.357-.1-.799-.1h-.8c-.442 0-.799.542-.799.1 0-.442.357-.8.799-.8zM7.202 14.939a.796.796 0 0 1-1.13 0 6.802 6.802 0 0 1-2.003-4.842c0-1.831.711-3.551 2.003-4.842a.8.8 0 0 1 1.13 1.131 5.21 5.21 0 0 0-1.533 3.711c0 1.403.544 2.721 1.533 3.711a.799.799 0 0 1 0 1.131zm-3.367.689a.799.799 0 1 1-1.131 1.131c-3.611-3.613-3.611-9.491 0-13.104a.799.799 0 1 1 1.131 1.131c-2.988 2.99-2.988 7.853 0 10.842z"/>
</svg>
