<svg xmlns="http://www.w3.org/2000/svg" width="43" height="44">
    <defs>
        <linearGradient id="gtsgjc15ma" x1="0%" x2="100%" y1="0%" y2="0%">
            <stop offset="0%" stop-color="#F82E6F"/>
            <stop offset="100%" stop-color="#CF38EF"/>
        </linearGradient>
    </defs>
    <path fill-rule="evenodd" fill="#FFF" d="M40.953 3.018a7.013 7.013 0 0 0-9.908 0L2.977 31.105c-.013.014-.021.03-.033.044-.016.019-.03.039-.045.059a.766.766 0 0 0-.097.186c-.007.021-.017.038-.023.059-.002.007-.007.015-.009.023L.018 43.042a.838.838 0 0 0-.017.157c0 .011-.003.02-.003.03a.76.76 0 0 0 .074.314.793.793 0 0 0 .152.23.8.8 0 0 0 .551.229c.06 0 .12-.007.18-.022l11.558-2.753c.021-.004.04-.016.06-.023a.779.779 0 0 0 .233-.126c.019-.015.039-.026.056-.042l.021-.016 28.069-28.088c2.732-2.734 2.732-7.181.001-9.914zm-1.101 1.101c1.937 1.939 2.102 4.983.506 7.117L32.74 3.613c2.134-1.597 5.176-1.431 7.112.506zm-3.853 11.567-7.705-7.711 1.1-1.102 7.706 7.711-1.101 1.102zm-32.14 24.45a.776.776 0 0 0-1.1 0l-.589.59 1.987-8.356 3.442-.382-.443 3.989c-.003.03.008.057.008.086 0 .029-.011.056-.008.085.004.026.017.047.022.072a.758.758 0 0 0 .313.473.783.783 0 0 0 .107.065.824.824 0 0 0 .162.051c.029.008.053.024.084.028a.792.792 0 0 0 .085.005h.003a.824.824 0 0 0 .085-.005l3.986-.443-.382 3.444-8.351 1.989.589-.59a.779.779 0 0 0 0-1.101zm9.769-4.267 17.417-17.43a.777.777 0 0 0 0-1.101.776.776 0 0 0-1.1 0L12.527 34.767l-3.715.413.412-3.717 17.42-17.429a.78.78 0 0 0-1.101-1.102L8.124 30.361l-2.478.276L27.193 9.076l7.706 7.711-21.547 21.561.276-2.479zm24.573-22.386-7.706-7.711 1.101-1.102 7.706 7.711-1.101 1.102z"/>
    <path fill="url(#gtsgjc15ma)" d="M40.953 3.018a7.013 7.013 0 0 0-9.908 0L2.977 31.105c-.013.014-.021.03-.033.044-.016.019-.03.039-.045.059a.766.766 0 0 0-.097.186c-.007.021-.017.038-.023.059-.002.007-.007.015-.009.023L.018 43.042a.838.838 0 0 0-.017.157c0 .011-.003.02-.003.03a.76.76 0 0 0 .074.314.793.793 0 0 0 .152.23.8.8 0 0 0 .551.229c.06 0 .12-.007.18-.022l11.558-2.753c.021-.004.04-.016.06-.023a.779.779 0 0 0 .233-.126c.019-.015.039-.026.056-.042l.021-.016 28.069-28.088c2.732-2.734 2.732-7.181.001-9.914zm-1.101 1.101c1.937 1.939 2.102 4.983.506 7.117L32.74 3.613c2.134-1.597 5.176-1.431 7.112.506zm-3.853 11.567-7.705-7.711 1.1-1.102 7.706 7.711-1.101 1.102zm-32.14 24.45a.776.776 0 0 0-1.1 0l-.589.59 1.987-8.356 3.442-.382-.443 3.989c-.003.03.008.057.008.086 0 .029-.011.056-.008.085.004.026.017.047.022.072a.758.758 0 0 0 .313.473.783.783 0 0 0 .107.065.824.824 0 0 0 .162.051c.029.008.053.024.084.028a.792.792 0 0 0 .085.005h.003a.824.824 0 0 0 .085-.005l3.986-.443-.382 3.444-8.351 1.989.589-.59a.779.779 0 0 0 0-1.101zm9.769-4.267 17.417-17.43a.777.777 0 0 0 0-1.101.776.776 0 0 0-1.1 0L12.527 34.767l-3.715.413.412-3.717 17.42-17.429a.78.78 0 0 0-1.101-1.102L8.124 30.361l-2.478.276L27.193 9.076l7.706 7.711-21.547 21.561.276-2.479zm24.573-22.386-7.706-7.711 1.101-1.102 7.706 7.711-1.101 1.102z"/>
</svg>
