<svg xmlns="http://www.w3.org/2000/svg" width="54" height="27">
    <defs>
        <linearGradient id="gdak28sv9a" x1="0%" x2="100%" y1="0%" y2="0%">
            <stop offset="0%" stop-color="#F82E6F"/>
            <stop offset="100%" stop-color="#CF38EF"/>
        </linearGradient>
    </defs>
    <path fill-rule="evenodd" fill="#FFF" d="M52.74 14.138 40.374 26.739a.875.875 0 0 1-1.249 0 .91.91 0 0 1 0-1.273l11.742-11.965L39.125 1.537a.91.91 0 0 1 0-1.273.87.87 0 0 1 1.249 0L52.74 12.865a.91.91 0 0 1 0 1.273zm-15.641 2.964c-1.948 0-3.533-1.615-3.533-3.601 0-1.985 1.585-3.6 3.533-3.6 1.949 0 3.534 1.615 3.534 3.6 0 1.986-1.585 3.601-3.534 3.601zm0-5.401c-.974 0-1.766.808-1.766 1.8 0 .993.792 1.801 1.766 1.801.975 0 1.767-.808 1.767-1.801 0-.992-.792-1.8-1.767-1.8zM26.5 17.102c-1.949 0-3.534-1.615-3.534-3.601 0-1.985 1.585-3.6 3.534-3.6 1.948 0 3.533 1.615 3.533 3.6 0 1.986-1.585 3.601-3.533 3.601zm0-5.401c-.975 0-1.767.808-1.767 1.8 0 .993.792 1.801 1.767 1.801.974 0 1.766-.808 1.766-1.801 0-.992-.792-1.8-1.766-1.8zm-10.6 5.401c-1.949 0-3.533-1.615-3.533-3.601 0-1.985 1.584-3.6 3.533-3.6 1.948 0 3.533 1.615 3.533 3.6 0 1.986-1.585 3.601-3.533 3.601zm0-5.401c-.974 0-1.767.808-1.767 1.8 0 .993.793 1.801 1.767 1.801.974 0 1.767-.808 1.767-1.801 0-.992-.793-1.8-1.767-1.8zm-13.767 1.8 11.742 11.965a.912.912 0 0 1 0 1.273.877.877 0 0 1-1.249 0L.259 14.138a.912.912 0 0 1 0-1.273L12.626.264a.87.87 0 0 1 1.249 0 .912.912 0 0 1 0 1.273L2.133 13.501z"/>
    <path fill="url(#gdak28sv9a)" d="M52.74 14.138 40.374 26.739a.875.875 0 0 1-1.249 0 .91.91 0 0 1 0-1.273l11.742-11.965L39.125 1.537a.91.91 0 0 1 0-1.273.87.87 0 0 1 1.249 0L52.74 12.865a.91.91 0 0 1 0 1.273zm-15.641 2.964c-1.948 0-3.533-1.615-3.533-3.601 0-1.985 1.585-3.6 3.533-3.6 1.949 0 3.534 1.615 3.534 3.6 0 1.986-1.585 3.601-3.534 3.601zm0-5.401c-.974 0-1.766.808-1.766 1.8 0 .993.792 1.801 1.766 1.801.975 0 1.767-.808 1.767-1.801 0-.992-.792-1.8-1.767-1.8zM26.5 17.102c-1.949 0-3.534-1.615-3.534-3.601 0-1.985 1.585-3.6 3.534-3.6 1.948 0 3.533 1.615 3.533 3.6 0 1.986-1.585 3.601-3.533 3.601zm0-5.401c-.975 0-1.767.808-1.767 1.8 0 .993.792 1.801 1.767 1.801.974 0 1.766-.808 1.766-1.801 0-.992-.792-1.8-1.766-1.8zm-10.6 5.401c-1.949 0-3.533-1.615-3.533-3.601 0-1.985 1.584-3.6 3.533-3.6 1.948 0 3.533 1.615 3.533 3.6 0 1.986-1.585 3.601-3.533 3.601zm0-5.401c-.974 0-1.767.808-1.767 1.8 0 .993.793 1.801 1.767 1.801.974 0 1.767-.808 1.767-1.801 0-.992-.793-1.8-1.767-1.8zm-13.767 1.8 11.742 11.965a.912.912 0 0 1 0 1.273.877.877 0 0 1-1.249 0L.259 14.138a.912.912 0 0 1 0-1.273L12.626.264a.87.87 0 0 1 1.249 0 .912.912 0 0 1 0 1.273L2.133 13.501z"/>
</svg>
