<svg xmlns="http://www.w3.org/2000/svg" width="48" height="48">
    <defs>
        <linearGradient id="f7vxr9np4a" x1="0%" x2="100%" y1="0%" y2="0%">
            <stop offset="0%" stop-color="#F82E6F"/>
            <stop offset="100%" stop-color="#CF38EF"/>
        </linearGradient>
    </defs>
    <path fill-rule="evenodd" fill="#FFF" d="M42.764 0a5.242 5.242 0 0 0-5.237 5.236c0 .904.23 1.754.634 2.496l-8.578 8.578a6.932 6.932 0 0 0-8.549-.001l-6.693-6.693a3.436 3.436 0 0 0 .495-1.762 3.493 3.493 0 0 0-3.491-3.49 3.494 3.494 0 0 0-3.491 3.49 3.494 3.494 0 0 0 3.491 3.491c.646 0 1.243-.187 1.762-.494l6.693 6.692a6.942 6.942 0 0 0 0 8.549L8.748 37.145a5.21 5.21 0 0 0-3.512-1.363A5.24 5.24 0 0 0 0 41.018a5.24 5.24 0 0 0 5.236 5.236 5.242 5.242 0 0 0 5.237-5.236 5.21 5.21 0 0 0-.634-2.496l11.196-11.196a6.95 6.95 0 0 0 3.402 1.413v8.867a5.239 5.239 0 0 0-4.363 5.157c0 2.888 2.348 4.337 5.236 4.337s5.236-1.449 5.236-4.337c0-2.589-1.891-4.739-4.363-5.157v-8.867a6.946 6.946 0 0 0 3.401-1.413l6.693 6.693a3.442 3.442 0 0 0-.495 1.763 3.494 3.494 0 0 0 3.491 3.491 3.495 3.495 0 0 0 3.491-3.491 3.495 3.495 0 0 0-3.491-3.491c-.646 0-1.243.187-1.762.495l-6.693-6.693a6.942 6.942 0 0 0 0-8.549l8.435-8.435a5.206 5.206 0 0 0 3.511 1.363c2.887 0 4.336-2.348 4.336-5.236S45.651 0 42.764 0zM9.6 7.854c0-.962.783-1.745 1.745-1.745.963 0 1.746.783 1.746 1.745 0 .963-.783 1.746-1.746 1.746A1.747 1.747 0 0 1 9.6 7.854zM5.236 44.509a3.495 3.495 0 0 1-3.491-3.491 3.495 3.495 0 0 1 3.491-3.491 3.494 3.494 0 0 1 3.491 3.491 3.494 3.494 0 0 1-3.491 3.491zM28.8 42.763a3.494 3.494 0 0 1-3.491 3.491 3.494 3.494 0 0 1-3.491-3.491 3.494 3.494 0 0 1 3.491-3.49 3.494 3.494 0 0 1 3.491 3.49zm-3.491-15.709a5.24 5.24 0 0 1-5.236-5.236 5.24 5.24 0 0 1 5.236-5.236 5.24 5.24 0 0 1 5.236 5.236 5.24 5.24 0 0 1-5.236 5.236zm15.709 8.728c0 .962-.783 1.745-1.745 1.745a1.747 1.747 0 0 1-1.746-1.745c0-.963.783-1.746 1.746-1.746.962 0 1.745.783 1.745 1.746zm1.746-27.055a3.494 3.494 0 0 1-3.491-3.491 3.494 3.494 0 0 1 3.491-3.491 3.495 3.495 0 0 1 3.491 3.491 3.494 3.494 0 0 1-3.491 3.491z"/>
    <path fill="url(#f7vxr9np4a)" d="M42.764 0a5.242 5.242 0 0 0-5.237 5.236c0 .904.23 1.754.634 2.496l-8.578 8.578a6.932 6.932 0 0 0-8.549-.001l-6.693-6.693a3.436 3.436 0 0 0 .495-1.762 3.493 3.493 0 0 0-3.491-3.49 3.494 3.494 0 0 0-3.491 3.49 3.494 3.494 0 0 0 3.491 3.491c.646 0 1.243-.187 1.762-.494l6.693 6.692a6.942 6.942 0 0 0 0 8.549L8.748 37.145a5.21 5.21 0 0 0-3.512-1.363A5.24 5.24 0 0 0 0 41.018a5.24 5.24 0 0 0 5.236 5.236 5.242 5.242 0 0 0 5.237-5.236 5.21 5.21 0 0 0-.634-2.496l11.196-11.196a6.95 6.95 0 0 0 3.402 1.413v8.867a5.239 5.239 0 0 0-4.363 5.157c0 2.888 2.348 4.337 5.236 4.337s5.236-1.449 5.236-4.337c0-2.589-1.891-4.739-4.363-5.157v-8.867a6.946 6.946 0 0 0 3.401-1.413l6.693 6.693a3.442 3.442 0 0 0-.495 1.763 3.494 3.494 0 0 0 3.491 3.491 3.495 3.495 0 0 0 3.491-3.491 3.495 3.495 0 0 0-3.491-3.491c-.646 0-1.243.187-1.762.495l-6.693-6.693a6.942 6.942 0 0 0 0-8.549l8.435-8.435a5.206 5.206 0 0 0 3.511 1.363c2.887 0 4.336-2.348 4.336-5.236S45.651 0 42.764 0zM9.6 7.854c0-.962.783-1.745 1.745-1.745.963 0 1.746.783 1.746 1.745 0 .963-.783 1.746-1.746 1.746A1.747 1.747 0 0 1 9.6 7.854zM5.236 44.509a3.495 3.495 0 0 1-3.491-3.491 3.495 3.495 0 0 1 3.491-3.491 3.494 3.494 0 0 1 3.491 3.491 3.494 3.494 0 0 1-3.491 3.491zM28.8 42.763a3.494 3.494 0 0 1-3.491 3.491 3.494 3.494 0 0 1-3.491-3.491 3.494 3.494 0 0 1 3.491-3.49 3.494 3.494 0 0 1 3.491 3.49zm-3.491-15.709a5.24 5.24 0 0 1-5.236-5.236 5.24 5.24 0 0 1 5.236-5.236 5.24 5.24 0 0 1 5.236 5.236 5.24 5.24 0 0 1-5.236 5.236zm15.709 8.728c0 .962-.783 1.745-1.745 1.745a1.747 1.747 0 0 1-1.746-1.745c0-.963.783-1.746 1.746-1.746.962 0 1.745.783 1.745 1.746zm1.746-27.055a3.494 3.494 0 0 1-3.491-3.491 3.494 3.494 0 0 1 3.491-3.491 3.495 3.495 0 0 1 3.491 3.491 3.494 3.494 0 0 1-3.491 3.491z"/>
</svg>
